name analog
datacolumns 19
datarows 85
range 0.28150000000000003 0.3235
endheader
time	ground_force_vx	ground_force_vy	ground_force_vz	ground_force_px	ground_force_py	ground_force_pz	l_ground_force_vx	l_ground_force_vy	l_ground_force_vz	l_ground_force_px	l_ground_force_py	l_ground_force_pz	ground_torque_x	ground_torque_y	ground_torque_z	l_ground_torque_x	l_ground_torque_y	l_ground_torque_z
0.28150000000000003	-0.0	-0.0	-0.0	1.615976095199585	-0.2508398294448852	-623.5846557617188	-0.0	-0.0	-0.0	-0.0	-0.0	-0.0	-0.0	-0.0	-0.0	-0.0	-0.0	-0.0
0.28200000000000003	-0.0	-0.0	-0.0	0.5791926383972168	-0.1057579666376113	-625.0626220703125	-0.0	-0.0	-0.0	-0.0	-0.0	-0.0	-0.0	-0.0	-0.0	-0.0	-0.0	-0.0
0.28250000000000003	-0.0	-0.0	-0.0	-0.1617314219474792	-0.752149760723114	-624.4881591796875	-0.0	-0.0	-0.0	-0.0	-0.0	-0.0	-0.0	-0.0	-0.0	-0.0	-0.0	-0.0
0.28300000000000003	-0.0	-0.0	-0.0	-0.289752185344696	-1.3925715684890747	-625.680908203125	-0.0	-0.0	-0.0	-0.0	-0.0	-0.0	-0.0	-0.0	-0.0	-0.0	-0.0	-0.0
0.28350000000000003	-0.0	-0.0	-0.0	-0.0505037009716033	-1.6884444952011108	-626.6944580078125	-0.0	-0.0	-0.0	-0.0	-0.0	-0.0	-0.0	-0.0	-0.0	-0.0	-0.0	-0.0
0.28400000000000003	-0.0	-0.0	-0.0	0.6413554549217224	-2.5125179290771484	-627.3333740234375	-0.0	-0.0	-0.0	-0.0	-0.0	-0.0	-0.0	-0.0	-0.0	-0.0	-0.0	-0.0
0.28450000000000003	-0.0	-0.0	-0.0	1.3211928606033323	-3.263925790786743	-627.3992309570312	-0.0	-0.0	-0.0	-0.0	-0.0	-0.0	-0.0	-0.0	-0.0	-0.0	-0.0	-0.0
0.28500000000000003	-0.0	-0.0	-0.0	1.767198085784912	-3.8877439498901367	-628.0377197265625	-0.0	-0.0	-0.0	-0.0	-0.0	-0.0	-0.0	-0.0	-0.0	-0.0	-0.0	-0.0
0.28550000000000003	-0.0	-0.0	-0.0	2.230262756347656	-3.7055344581604	-630.8621215820312	-0.0	-0.0	-0.0	-0.0	-0.0	-0.0	-0.0	-0.0	-0.0	-0.0	-0.0	-0.0
0.28600000000000003	-0.0	-0.0	-0.0	2.8032658100128174	-4.11713981628418	-631.349853515625	-0.0	-0.0	-0.0	-0.0	-0.0	-0.0	-0.0	-0.0	-0.0	-0.0	-0.0	-0.0
0.28650000000000003	-0.0	-0.0	-0.0	2.926743030548096	-4.655157566070557	-632.1365966796875	-0.0	-0.0	-0.0	-0.0	-0.0	-0.0	-0.0	-0.0	-0.0	-0.0	-0.0	-0.0
0.28700000000000003	-0.0	-0.0	-0.0	2.621678352355957	-5.491542339324951	-631.4857177734375	-0.0	-0.0	-0.0	-0.0	-0.0	-0.0	-0.0	-0.0	-0.0	-0.0	-0.0	-0.0
0.28750000000000003	-0.0	-0.0	-0.0	2.465663433074951	-5.49388313293457	-631.0541381835938	-0.0	-0.0	-0.0	-0.0	-0.0	-0.0	-0.0	-0.0	-0.0	-0.0	-0.0	-0.0
0.28800000000000003	-0.0	-0.0	-0.0	1.1771326065063477	-5.493552684783936	-630.5728149414062	-0.0	-0.0	-0.0	-0.0	-0.0	-0.0	-0.0	-0.0	-0.0	-0.0	-0.0	-0.0
0.2885	-0.0	-0.0	-0.0	0.0367740094661712	-4.473983287811279	-629.15185546875	-0.0	-0.0	-0.0	-0.0	-0.0	-0.0	-0.0	-0.0	-0.0	-0.0	-0.0	-0.0
0.289	-0.0	-0.0	-0.0	-0.8905971050262451	-3.816589117050171	-629.1583862304688	-0.0	-0.0	-0.0	-0.0	-0.0	-0.0	-0.0	-0.0	-0.0	-0.0	-0.0	-0.0
0.2895	-0.0	-0.0	-0.0	-2.0706732273101807	-3.635531902313232	-629.2322387695312	-0.0	-0.0	-0.0	-0.0	-0.0	-0.0	-0.0	-0.0	-0.0	-0.0	-0.0	-0.0
0.29	-0.0	-0.0	-0.0	-2.605633020401001	-2.9766125679016118	-626.4746704101562	-0.0	-0.0	-0.0	-0.0	-0.0	-0.0	-0.0	-0.0	-0.0	-0.0	-0.0	-0.0
0.2905	-0.0	-0.0	-0.0	-3.4798316955566406	-3.3515515327453613	-625.1285400390625	-0.0	-0.0	-0.0	-0.0	-0.0	-0.0	-0.0	-0.0	-0.0	-0.0	-0.0	-0.0
0.291	-0.0	-0.0	-0.0	-4.139492034912109	-3.6009926795959477	-623.4322509765625	-0.0	-0.0	-0.0	-0.0	-0.0	-0.0	-0.0	-0.0	-0.0	-0.0	-0.0	-0.0
0.2915	-0.0	-0.0	-0.0	-4.157371044158936	-3.386854648590088	-623.50439453125	-0.0	-0.0	-0.0	-0.0	-0.0	-0.0	-0.0	-0.0	-0.0	-0.0	-0.0	-0.0
0.292	-0.0	-0.0	-0.0	-4.032382488250732	-3.40484881401062	-621.5966796875	-0.0	-0.0	-0.0	-0.0	-0.0	-0.0	-0.0	-0.0	-0.0	-0.0	-0.0	-0.0
0.2925	-0.0	-0.0	-0.0	-3.515194892883301	-3.707524299621582	-622.2318725585938	-0.0	-0.0	-0.0	-0.0	-0.0	-0.0	-0.0	-0.0	-0.0	-0.0	-0.0	-0.0
0.293	-0.0	-0.0	-0.0	-3.692678928375244	-2.8723294734954834	-620.1124877929688	-0.0	-0.0	-0.0	-0.0	-0.0	-0.0	-0.0	-0.0	-0.0	-0.0	-0.0	-0.0
0.2935	-0.0	-0.0	-0.0	-3.943371057510376	-3.082048177719116	-619.1243896484375	-0.0	-0.0	-0.0	-0.0	-0.0	-0.0	-0.0	-0.0	-0.0	-0.0	-0.0	-0.0
0.294	-0.0	-0.0	-0.0	-4.979314804077148	-2.299222469329834	-617.00537109375	-0.0	-0.0	-0.0	-0.0	-0.0	-0.0	-0.0	-0.0	-0.0	-0.0	-0.0	-0.0
0.2945	-0.0	-0.0	-0.0	-5.050483226776123	-1.5698626041412354	-616.724365234375	-0.0	-0.0	-0.0	-0.0	-0.0	-0.0	-0.0	-0.0	-0.0	-0.0	-0.0	-0.0
0.295	-0.0	-0.0	-0.0	-5.331954002380371	-0.943838357925415	-614.88623046875	-0.0	-0.0	-0.0	-0.0	-0.0	-0.0	-0.0	-0.0	-0.0	-0.0	-0.0	-0.0
0.2955	-0.0	-0.0	-0.0	-5.583509922027588	-0.592528760433197	-614.948486328125	-0.0	-0.0	-0.0	-0.0	-0.0	-0.0	-0.0	-0.0	-0.0	-0.0	-0.0	-0.0
0.296	-0.0	-0.0	-0.0	-5.211056709289551	-0.1569490134716034	-613.0589599609375	-0.0	-0.0	-0.0	-0.0	-0.0	-0.0	-0.0	-0.0	-0.0	-0.0	-0.0	-0.0
0.2965	-0.0	-0.0	-0.0	-5.7431640625	0.3195419907569885	-614.5198974609375	-0.0	-0.0	-0.0	-0.0	-0.0	-0.0	-0.0	-0.0	-0.0	-0.0	-0.0	-0.0
0.297	-0.0	-0.0	-0.0	-6.136957168579102	0.2452127337455749	-613.061279296875	-0.0	-0.0	-0.0	-0.0	-0.0	-0.0	-0.0	-0.0	-0.0	-0.0	-0.0	-0.0
0.2975	-0.0	-0.0	-0.0	-5.995727062225342	-0.2634913623332977	-614.6651000976562	-0.0	-0.0	-0.0	-0.0	-0.0	-0.0	-0.0	-0.0	-0.0	-0.0	-0.0	-0.0
0.298	-0.0	-0.0	-0.0	-7.099444389343262	-0.5534638166427612	-616.7262573242188	-0.0	-0.0	-0.0	-0.0	-0.0	-0.0	-0.0	-0.0	-0.0	-0.0	-0.0	-0.0
0.2985	-0.0	-0.0	-0.0	-6.99591064453125	-1.6792614459991455	-617.15380859375	-0.0	-0.0	-0.0	-0.0	-0.0	-0.0	-0.0	-0.0	-0.0	-0.0	-0.0	-0.0
0.299	-0.0	-0.0	-0.0	-7.36681604385376	-1.6845190525054932	-619.238037109375	-0.0	-0.0	-0.0	-0.0	-0.0	-0.0	-0.0	-0.0	-0.0	-0.0	-0.0	-0.0
0.2995	-0.0	-0.0	-0.0	-7.418123245239258	-2.514524221420288	-620.4830932617188	-0.0	-0.0	-0.0	-0.0	-0.0	-0.0	-0.0	-0.0	-0.0	-0.0	-0.0	-0.0
0.3	-0.0	-0.0	-0.0	-7.774776458740234	-2.768512725830078	-623.1376342773438	-0.0	-0.0	-0.0	-0.0	-0.0	-0.0	-0.0	-0.0	-0.0	-0.0	-0.0	-0.0
0.3005	-0.0	-0.0	-0.0	-7.117820739746094	-2.6037845611572266	-624.4974365234375	-0.0	-0.0	-0.0	-0.0	-0.0	-0.0	-0.0	-0.0	-0.0	-0.0	-0.0	-0.0
0.301	-0.0	-0.0	-0.0	-6.620659351348877	-2.8140437602996826	-625.1285400390625	-0.0	-0.0	-0.0	-0.0	-0.0	-0.0	-0.0	-0.0	-0.0	-0.0	-0.0	-0.0
0.3015	-0.0	-0.0	-0.0	-6.582441329956055	-2.9986608028411865	-626.2637939453125	-0.0	-0.0	-0.0	-0.0	-0.0	-0.0	-0.0	-0.0	-0.0	-0.0	-0.0	-0.0
0.302	-0.0	-0.0	-0.0	-6.818421840667725	-2.972850799560547	-625.910888671875	-0.0	-0.0	-0.0	-0.0	-0.0	-0.0	-0.0	-0.0	-0.0	-0.0	-0.0	-0.0
0.3025	-0.0	-0.0	-0.0	-7.442989826202393	-3.1317286491394043	-626.5894165039062	-0.0	-0.0	-0.0	-0.0	-0.0	-0.0	-0.0	-0.0	-0.0	-0.0	-0.0	-0.0
0.303	-0.0	-0.0	-0.0	-8.207366943359375	-2.681402921676636	-627.0944213867188	-0.0	-0.0	-0.0	-0.0	-0.0	-0.0	-0.0	-0.0	-0.0	-0.0	-0.0	-0.0
0.3035	-0.0	-0.0	-0.0	-8.315980911254883	-3.08079195022583	-629.0594482421875	-0.0	-0.0	-0.0	-0.0	-0.0	-0.0	-0.0	-0.0	-0.0	-0.0	-0.0	-0.0
0.304	-0.0	-0.0	-0.0	-7.761314392089844	-2.7241761684417725	-628.2301025390625	-0.0	-0.0	-0.0	-0.0	-0.0	-0.0	-0.0	-0.0	-0.0	-0.0	-0.0	-0.0
0.3045	-0.0	-0.0	-0.0	-7.981422424316406	-2.0890309810638428	-628.5391235351562	-0.0	-0.0	-0.0	-0.0	-0.0	-0.0	-0.0	-0.0	-0.0	-0.0	-0.0	-0.0
0.305	-0.0	-0.0	-0.0	-8.71216106414795	-1.5825889110565186	-628.54833984375	-0.0	-0.0	-0.0	-0.0	-0.0	-0.0	-0.0	-0.0	-0.0	-0.0	-0.0	-0.0
0.3055	-0.0	-0.0	-0.0	-9.536500930786133	-1.386828064918518	-627.6007080078125	-0.0	-0.0	-0.0	-0.0	-0.0	-0.0	-0.0	-0.0	-0.0	-0.0	-0.0	-0.0
0.306	-0.0	-0.0	-0.0	-9.37651824951172	-0.8913040161132812	-627.7568969726562	-0.0	-0.0	-0.0	-0.0	-0.0	-0.0	-0.0	-0.0	-0.0	-0.0	-0.0	-0.0
0.3065	-0.0	-0.0	-0.0	-8.96059513092041	-0.713043212890625	-628.8168334960938	-0.0	-0.0	-0.0	-0.0	-0.0	-0.0	-0.0	-0.0	-0.0	-0.0	-0.0	-0.0
0.307	-0.0	-0.0	-0.0	-9.357038497924805	-1.653529167175293	-630.6221923828125	-0.0	-0.0	-0.0	-0.0	-0.0	-0.0	-0.0	-0.0	-0.0	-0.0	-0.0	-0.0
0.3075	-0.0	-0.0	-0.0	-8.891590118408203	-1.2382898330688477	-631.5645751953125	-0.0	-0.0	-0.0	-0.0	-0.0	-0.0	-0.0	-0.0	-0.0	-0.0	-0.0	-0.0
0.308	-0.0	-0.0	-0.0	-9.070151329040527	-1.4167379140853882	-632.8193969726562	-0.0	-0.0	-0.0	-0.0	-0.0	-0.0	-0.0	-0.0	-0.0	-0.0	-0.0	-0.0
0.3085	-0.0	-0.0	-0.0	-8.178295135498047	-1.0204908847808838	-632.5452880859375	-0.0	-0.0	-0.0	-0.0	-0.0	-0.0	-0.0	-0.0	-0.0	-0.0	-0.0	-0.0
0.309	-0.0	-0.0	-0.0	-8.57304573059082	-1.5842719078063965	-635.132080078125	-0.0	-0.0	-0.0	-0.0	-0.0	-0.0	-0.0	-0.0	-0.0	-0.0	-0.0	-0.0
0.3095	-0.0	-0.0	-0.0	-8.129745483398438	-1.515216827392578	-634.3909912109375	-0.0	-0.0	-0.0	-0.0	-0.0	-0.0	-0.0	-0.0	-0.0	-0.0	-0.0	-0.0
0.31	-0.0	-0.0	-0.0	-7.879021167755127	-1.9323982000350952	-637.2493896484375	-0.0	-0.0	-0.0	-0.0	-0.0	-0.0	-0.0	-0.0	-0.0	-0.0	-0.0	-0.0
0.3105	-0.0	-0.0	-0.0	-7.846601009368896	-1.7420741319656372	-636.0451049804688	-0.0	-0.0	-0.0	-0.0	-0.0	-0.0	-0.0	-0.0	-0.0	-0.0	-0.0	-0.0
0.311	-0.0	-0.0	-0.0	-8.413894653320312	-1.9608688354492188	-635.2094116210938	-0.0	-0.0	-0.0	-0.0	-0.0	-0.0	-0.0	-0.0	-0.0	-0.0	-0.0	-0.0
0.3115	-0.0	-0.0	-0.0	-8.357867240905762	-0.8634083867073059	-634.5834350585938	-0.0	-0.0	-0.0	-0.0	-0.0	-0.0	-0.0	-0.0	-0.0	-0.0	-0.0	-0.0
0.312	-0.0	-0.0	-0.0	-8.049423217773438	-1.2755800485610962	-635.7527465820312	-0.0	-0.0	-0.0	-0.0	-0.0	-0.0	-0.0	-0.0	-0.0	-0.0	-0.0	-0.0
0.3125	-0.0	-0.0	-0.0	-8.090625762939453	-0.8227150440216064	-634.9637451171875	-0.0	-0.0	-0.0	-0.0	-0.0	-0.0	-0.0	-0.0	-0.0	-0.0	-0.0	-0.0
0.313	-0.0	-0.0	-0.0	-8.15259075164795	-0.6445017457008362	-633.496337890625	-0.0	-0.0	-0.0	-0.0	-0.0	-0.0	-0.0	-0.0	-0.0	-0.0	-0.0	-0.0
0.3135	-0.0	-0.0	-0.0	-8.825326919555664	-1.179350733757019	-635.5040893554688	-0.0	-0.0	-0.0	-0.0	-0.0	-0.0	-0.0	-0.0	-0.0	-0.0	-0.0	-0.0
0.314	-0.0	-0.0	-0.0	-8.927252769470215	-1.303829550743103	-635.395263671875	-0.0	-0.0	-0.0	-0.0	-0.0	-0.0	-0.0	-0.0	-0.0	-0.0	-0.0	-0.0
0.3145	-0.0	-0.0	-0.0	-8.25497817993164	-2.3649590015411377	-635.8300170898438	-0.0	-0.0	-0.0	-0.0	-0.0	-0.0	-0.0	-0.0	-0.0	-0.0	-0.0	-0.0
0.315	-0.0	-0.0	-0.0	-7.446237087249756	-2.3117148876190186	-636.6181030273438	-0.0	-0.0	-0.0	-0.0	-0.0	-0.0	-0.0	-0.0	-0.0	-0.0	-0.0	-0.0
0.3155	-0.0	-0.0	-0.0	-7.199672698974609	-3.3869552612304688	-637.9473876953125	-0.0	-0.0	-0.0	-0.0	-0.0	-0.0	-0.0	-0.0	-0.0	-0.0	-0.0	-0.0
0.316	-0.0	-0.0	-0.0	-6.37592887878418	-3.2978248596191406	-637.7390747070312	-0.0	-0.0	-0.0	-0.0	-0.0	-0.0	-0.0	-0.0	-0.0	-0.0	-0.0	-0.0
0.3165	-0.0	-0.0	-0.0	-5.9398698806762695	-3.9687576293945312	-638.6522216796875	-0.0	-0.0	-0.0	-0.0	-0.0	-0.0	-0.0	-0.0	-0.0	-0.0	-0.0	-0.0
0.317	-0.0	-0.0	-0.0	-5.777561664581299	-4.146923542022705	-639.6925048828125	-0.0	-0.0	-0.0	-0.0	-0.0	-0.0	-0.0	-0.0	-0.0	-0.0	-0.0	-0.0
0.3175	-0.0	-0.0	-0.0	-5.420652389526367	-4.545650482177734	-639.878173828125	-0.0	-0.0	-0.0	-0.0	-0.0	-0.0	-0.0	-0.0	-0.0	-0.0	-0.0	-0.0
0.318	-0.0	-0.0	-0.0	-5.934571266174316	-4.880924701690674	-638.9024658203125	-0.0	-0.0	-0.0	-0.0	-0.0	-0.0	-0.0	-0.0	-0.0	-0.0	-0.0	-0.0
0.3185	-0.0	-0.0	-0.0	-5.926565170288086	-4.570897579193115	-640.0620727539062	-0.0	-0.0	-0.0	-0.0	-0.0	-0.0	-0.0	-0.0	-0.0	-0.0	-0.0	-0.0
0.319	-0.0	-0.0	-0.0	-6.044918060302734	-4.545650482177734	-639.1566162109375	-0.0	-0.0	-0.0	-0.0	-0.0	-0.0	-0.0	-0.0	-0.0	-0.0	-0.0	-0.0
0.3195	-0.0	-0.0	-0.0	-5.977104187011719	-4.160940170288086	-638.6925048828125	-0.0	-0.0	-0.0	-0.0	-0.0	-0.0	-0.0	-0.0	-0.0	-0.0	-0.0	-0.0
0.32	-0.0	-0.0	-0.0	-6.441474437713623	-4.007682800292969	-637.9533081054688	-0.0	-0.0	-0.0	-0.0	-0.0	-0.0	-0.0	-0.0	-0.0	-0.0	-0.0	-0.0
0.3205	-0.0	-0.0	-0.0	-6.77714204788208	-3.5465009212493896	-638.0252075195312	-0.0	-0.0	-0.0	-0.0	-0.0	-0.0	-0.0	-0.0	-0.0	-0.0	-0.0	-0.0
0.321	-0.0	-0.0	-0.0	-7.028662204742432	-3.095282554626465	-634.7288818359375	-0.0	-0.0	-0.0	-0.0	-0.0	-0.0	-0.0	-0.0	-0.0	-0.0	-0.0	-0.0
0.3215	-0.0	-0.0	-0.0	-7.674504280090332	-2.832887887954712	-634.3970947265625	-0.0	-0.0	-0.0	-0.0	-0.0	-0.0	-0.0	-0.0	-0.0	-0.0	-0.0	-0.0
0.322	-0.0	-0.0	-0.0	-7.204270839691162	-2.362999439239502	-635.6211547851562	-0.0	-0.0	-0.0	-0.0	-0.0	-0.0	-0.0	-0.0	-0.0	-0.0	-0.0	-0.0
0.3225	-0.0	-0.0	-0.0	-7.358917236328125	-2.3847129344940186	-636.6181030273438	-0.0	-0.0	-0.0	-0.0	-0.0	-0.0	-0.0	-0.0	-0.0	-0.0	-0.0	-0.0
0.323	-0.0	-0.0	-0.0	-7.269872188568115	-2.4096555709838867	-633.9580078125	-0.0	-0.0	-0.0	-0.0	-0.0	-0.0	-0.0	-0.0	-0.0	-0.0	-0.0	-0.0
0.3235	-0.0	-0.0	-0.0	-7.335911273956299	-2.8973987102508545	-633.8657836914062	-0.0	-0.0	-0.0	-0.0	-0.0	-0.0	-0.0	-0.0	-0.0	-0.0	-0.0	-0.0
